<svg xmlns="http://www.w3.org/2000/svg" width="32" height="32">
  <defs>
    <linearGradient id="a" x1="15%" x2="85%" y1="15%" y2="85%">
      <stop stop-color="#ff5722" />
      <stop offset="1" stop-color="#f44336" />
    </linearGradient>
  </defs>
  <path
    d="M4 0C1.784 0 0 1.784 0 4v24c0 2.216 1.784 4 4 4h24c2.216 0 4-1.784 4-4V4c0-2.216-1.784-4-4-4Zm2.084 4h8.658v2.354l-2.38 8.658q.675-.027 1.406.433.974.596.974 1.733v7.277q0 3.328-4.33 3.545-4.328-.19-4.328-3.545v-2.543h2.732v3.734h2.977v-8.468H8.816l2.977-10.824H8.816v3.923H6.084Zm15.504 0q1.73 0 2.84.676 1.488.92 1.488 2.869v16.91q0 3.356-4.328 3.545-4.113-.216-4.113-3.545V7.545q0-1.949 1.433-2.87Q19.992 4 21.588 4m-1.381 2.354v19.292h2.977V6.354Z"
    style="fill:url(#a)" />
</svg>